<?xml version="1.0" encoding="UTF-8"?>
<svg id="Calque_2" data-name="Calque 2" xmlns="http://www.w3.org/2000/svg" viewBox="0 0 249.91 248.63">
  <defs>
    <style>
      .cls-1 {
        fill: #6a3512;
      }

      .cls-2 {
        fill: #c8851b;
      }

      .cls-3 {
        fill: #d7b05f;
      }

      .cls-4 {
        fill: #c98d2d;
      }

      .cls-5 {
        fill: #763b13;
      }

      .cls-6 {
        fill: #7e3c18;
      }

      .cls-7 {
        fill: #704428;
      }

      .cls-8 {
        fill: #9e5715;
      }

      .cls-9 {
        fill: #8b4217;
      }

      .cls-10 {
        fill: #844911;
      }

      .cls-11 {
        fill: #eddc5d;
      }

      .cls-12 {
        fill: #562619;
      }

      .cls-13 {
        fill: #935113;
      }

      .cls-14 {
        fill: #4e1e19;
      }

      .cls-15 {
        fill: #652a16;
      }

      .cls-16 {
        fill: #ac5e16;
      }

      .cls-17 {
        fill: #b1703e;
      }

      .cls-18 {
        fill: #cfba34;
      }

      .cls-19 {
        fill: #f8f6f6;
      }

      .cls-20 {
        fill: #5e3410;
      }

      .cls-21 {
        fill: #8c8b8b;
      }

      .cls-22 {
        fill: #52221e;
      }

      .cls-23 {
        fill: #f9f8f8;
      }

      .cls-24 {
        fill: #d2d2d2;
      }

      .cls-25 {
        fill: #dfcc4a;
      }
    </style>
  </defs>
  <g id="Calque_1-2" data-name="Calque 1">
    <g>
      <path class="cls-22" d="M59.89,67.57l1,2c-14.75,16.49-20.8,37.02-20,59,.46,12.62,3.3,23.67,9,35,4.66,9.26,10.53,16.06,18,23,12.45,11.56,24.13,17.53,41,21,2.36.49,6.83,1.82,9,2l-1,2c-1.59-.17-3.51.26-5,0-1.74-.3-4.79-.69-6-1-7.73-1.95-20.99-7.91-28-12-1.85-1.08-6.11-6.01-8.52-6.02-1.66,1.31-5.1,2.95-6.48,4.02v-1c2.33-.14,5.53-2.88,4.89-5.3-.53-2.03-7.17-6.81-8.89-8.7-1.18-1.3-1.93-.92-2-1-1.72-1.97-8.1-13.08-9.54-15.96-4.56-9.11-8.29-20.86-8.45-31.05-4.79-.13-11.82.58-13.01-4.99-9.13-2.67-9.64,1.33-16,2l2-4c3.65-.04,5.44-.92,8-1,.61-.02,2.35,0,3,0,.99,0,2.01-.06,3,0,.12.95-.18,2.14,0,3,.53.15,1.37-.1,2,0v2s3-2,3-2c.1.98-.1,2.02,0,3,1,.05,2-.04,3,0,1.33.05,2.68-.01,4,0v-14.01c-.67-.06-1.34.05-2,0s-1.34-.02-2,0c-.33.01-.68-.04-1,0-.91-3.88,5.21-1.19,6.01-1.99.25-12.27,5.26-24.69,11.19-35.31,2.2-3.93,6.31-7.38,6.81-11.69l1-1h2Z"/>
      <path class="cls-22" d="M191.89,68.57l13.48,22.02,6.62,24.88,7.27.06c1.13.22.49,1.93.63,2.04-1.33,0-2.67,0-4,0h-4c-.23,4.62.33,9.39,0,14-.02.33.03.67,0,1-1.45,18-7.62,29.78-17.02,44.53-.51.8-1.9,1.31-1.98,1.47h-2c7.58-9.27,13.18-22.39,16-34,3.43-14.13,3.35-18.88,1-33-2.61-15.72-6.15-27.75-17-40-.27-1.51.06-1.97,1-3Z"/>
      <path class="cls-22" d="M131.89,37.57h2c9.12,2.01,18.37,3.75,26.98,7.52,7.59,3.31,13.72,8.76,21.02,12.48l-2,3c-.46-.42-1.52-.58-2-1-4.77-4.25-4.49-4.46-10-7-10.6-8.33-24.8-11.35-38-12-3.17-.16-6.83-.16-10,0-18.25.9-33.58,6.88-48,18-.31.08-.68-.07-1,0-.62.13-1.56-.18-2,0v-1c4.22-1.93,7.61-5.4,11.69-7.81,10.78-6.35,22.92-10.17,35.37-11.63.6-.39,1.43-4.91,1.93-6.57l.94,6.57,13.06-.57Z"/>
      <path class="cls-14" d="M192.89,178.57c-.12.24-.05,1.5,0,2l-1,2c-5.01.65-8.14,8.62-10,10-1.33.98-9.07,5.87-11,7-3.29,1.91-13.51,6.8-17,8-4.44,1.52-17.55,4.47-22,5-3.38.4-10.5.3-14,0-.07,0,.33-.86-1-1l1-2c7.03.57,15.2-.12,22-2,18.74-2.29,39.09-14.43,51-29h2Z"/>
      <path class="cls-6" d="M35.89,38.57c1.68-3.45,3.52-1.16,4.52-4.02h1.93c1.21,2.62,3.6,2.26,5.57,4.49,2.33,2.64,3.46,8.74,6.4,10.59,4.14,2.61,8.6-.87,13.57,5.93-4.1-1.49-7.37,1.62-10.99,3,.19-3.93-6.54-11.18-9.49-13.06-1.65-1.04-2.65-.6-3.52-.94-2.41-.96-2.46-1.33-3.77-1.95-2.4-1.13-2.8,1.88-4.23-4.05Z"/>
      <path class="cls-15" d="M121.89,17.57c-1.11-2.2-2.72-6.29-2.96-8.61-1.16-11.33,13.2-12.87,11.85,1-.33,3.35-3.12,8.48-2.88,11.05.3,3.21,3.5,4.16,4.27,5.81,1.38,2.97,1.8,7.45,1.71,10.75h-2c.36-4.13.57-5.63-4-6.01l1.99-3.98c-1.32.02-2.67-.06-4,0-.14-5.65.19-11.36,0-17-.11-3.06-.04-12.32-4-6-1.26,2.01-1.16,2.71-1,5,.02.27.98.75,1,1,.2,2.3-.14,4.69,0,7Z"/>
      <path class="cls-16" d="M43.89,44.57c.87.34,1.87-.1,3.52.94,2.96,1.88,9.68,9.13,9.49,13.06,3.62-1.38,6.89-4.49,10.99-3,.41.57.62,1.39,1,2v1c-2.47,1.03-7.05,6.73-9,9h-2l-1.08-3.92-2.92-.08c-2.17-4.89-.9-6.55-2-9-2.19-4.87-6.57-5.68-8-10Z"/>
      <path class="cls-16" d="M125.89,27.57c1.33-.06,2.67.03,4,0l-1.99,3.98c4.57.38,4.36,1.88,4,6.01l-13.06.57-.94-6.57c.39-1.29.14-2.4,1-4,2.01,1.32,4.5.11,7,0Z"/>
      <path class="cls-16" d="M204.89,45.57c-1.83,1.97-2.4,3.02-5.07,5.46-2.27,2.08-2.19,5.09-6.94,4.55-1.76,1.88,8.2,8.7-.99,10.99-.75-4.48-4.5-7.5-7-11,.28-.17.57-1.24,1.68-1.78,1.94-.93,3.58-.76,5.32-1.22,1.39-.37,2.15.72,4-1,.38-.36.59-1.48,1-2,.39-.26.65-.71,1-1,1.67-1.35,2.69-2.26,4-4l3,1Z"/>
      <path class="cls-15" d="M191.89,68.57c-.94,1.03-1.27,1.49-1,3-2.59-2.93-8.05-8.31-11-11l2-3h1l7.53,9.11c1.16,1.36,1.35-.08,1.47-.11,9.19-2.29-.76-9.12.99-10.99,4.75.54,4.67-2.47,6.94-4.55,2.66-2.44,3.24-3.49,5.07-5.46,2.98-3.21,4.9-3.25,7-8,.18-.41.64-.73,1-1,6.51,9.66-10.55,13.5-13.07,17.43-1.81,2.84-.21,5.77-1.45,8.55-.89,2-4.97,4.35-6.49,6.01Z"/>
      <path class="cls-12" d="M132.89,219.57c.09.66,1.36,1.81,1,2.99-2.71-.12-3.74.85-5,3.01-.75,1.28-1,1.14-1,3,0,3.04,1.65,6.15,2.5,9.04,1.47,2.05,4.06-1.72,3.51,1.47-.51,2.97-3.6,7.58-6.01,9.5-.66-.03-1.34.03-2,0h-2c-.65-.07-1.46.14-2,0v-1c1.32.43,2.29-.79,3-1,.66-.2,1.93.39,2.77-.18,2.41-1.76.9-11.72-1.77-13.82l-2-8c.19-.21-.12-1.54,1-2.46,1.38-1.12,5.98-2.33,8-2.54Z"/>
      <path class="cls-5" d="M125.89,232.57l-1,14c-.71.21-1.68,1.43-3,1l-2-2c-.7-3.31-.55-5.46,0-9,.43-2.79,2.96-4.93,2-10,.33-.11,1.57-1.52,2-2l2,8Z"/>
      <path class="cls-12" d="M62.89,195.57v1c-.11.08.46,1.75-.65,2.03-2.29.58-6.11-.92-8.36.46-2.56,1.56-4.09,12.1-10.25,14.77-3.28,1.42-7.38.58-7.73-3.25,5.54,2.41,6.46-3.57,9-6,3.06-2.93,10.59-7.27,12-11,.92,2.94,2.77,1.13,4.5,1.21.87.04,1.41.8,1.5.79Z"/>
      <path class="cls-1" d="M196.89,185.57c.11.62-.16,1.49,0,2l-4.94,5.52c.09.61,2.4,1.54,2.94,2.48.37.64.41,1.99,1,3-3.22.04-5.93.43-9-1-1.36-1.72-.7-2.65.14-4.31,1.2-2.36,6.35-8.33,6.86-9.69.83.73,2.31,1.26,3,2Z"/>
      <path class="cls-10" d="M55.89,185.57c2.09,1.61,1.84,5.79,1,8-1.41,3.73-8.94,8.07-12,11-.85-1.62-3.4-.94-5-1,3.53-3.2,7.72-4.6,11-8,3.52-3.65,1.25-6.28,2.99-9.31.67-1.17,1.91-.58,2.01-.69Z"/>
      <path class="cls-2" d="M125.89,10.57c.19,5.64-.14,11.35,0,17-2.5.11-4.99,1.32-7,0,1.63-3.04,4.29-3.05,4.09-7.53-.06-1.31-1.08-2.3-1.09-2.47-.14-2.31.2-4.7,0-7,1.33,1.02,2.69,1.01,4,0Z"/>
      <path class="cls-20" d="M191.89,182.57c.65-.08,1.34.06,2,0,.02.32.08.8,0,1-.51,1.36-5.66,7.33-6.86,9.69-.84,1.66-1.5,2.59-.14,4.31-1.98-.93-3.82-3.16-5-5,1.86-1.38,4.99-9.35,10-10Z"/>
      <path class="cls-1" d="M35.89,38.57c1.43,5.93,1.83,2.92,4.23,4.05,1.31.62,1.36.99,3.77,1.95,1.43,4.32,5.81,5.13,8,10l-14.56-8.93c-1.77-2.34-2.8-4.28-1.44-7.07Z"/>
      <path class="cls-14" d="M205.89,199.57c.44,2.93,3.43,3.83,5.42,6.08,1.22,1.38,2.37,4.74,2.58,4.92-.14.46-.92.78-1,1-.74-.71-2.48-1.34-3-2-2.53-3.2-3-2.93-5-5-1.28-1.33-1.5-4.15-3.95-4.07l.95-1.93c1.49.59,3.29.69,4,1Z"/>
      <path class="cls-10" d="M198.89,196.57c1.02.48,2.02,1.62,3,2l-.95,1.93c2.45-.08,2.66,2.74,3.95,4.07h-2s0,2,0,2c-.77-.61-2.03-.79-3-1-1.31-2.27-2.61-4.65-4-7-.59-1.01-.63-2.36-1-3,1.51-.12,2.68.38,4,1Z"/>
      <path class="cls-8" d="M44.89,204.57c-2.54,2.43-3.46,8.41-9,6-.36-3.84,1.72-4.93,4-7,1.6.06,4.15-.62,5,1Z"/>
      <path class="cls-7" d="M212.89,36.57c-.36.27-.82.59-1,1-6.91-2.89-7.5,3.68-10,7-1.31,1.74-2.33,2.65-4,4,1.54-4.84,5.24-14.34,11.44-13.99,1.49.16,2.71.73,3.56,1.99Z"/>
      <path class="cls-13" d="M191.89,66.57c-.12.03-.31,1.47-1.47.11l-7.53-9.11c.36-1.02,1.14-1.47,2-2,2.5,3.5,6.25,6.52,7,11Z"/>
      <path class="cls-14" d="M198.89,190.57c.38,1.63-.26,4.18,0,6-1.32-.62-2.49-1.12-4-1-.54-.94-2.86-1.87-2.94-2.48l4.94-5.52c.27.86,1.83,2.26,2,3Z"/>
      <path class="cls-7" d="M210.89,201.57c2.44,1.83,4.83,5.8,4,9-.31-.13-.83.15-1,0-.21-.18-1.36-3.54-2.58-4.92-1.99-2.24-4.98-3.15-5.42-6.08,1.53.68,3.41.81,5,2Z"/>
      <path class="cls-7" d="M58.89,181.57c-.99,1.3-1.94,2.77-3,4-.1.11-1.33-.48-2.01.69-1.74,3.02.53,5.65-2.99,9.31-1.39-7,2.17-9.99,6-15,.07.08.82-.3,2,1Z"/>
      <path class="cls-15" d="M53.89,63.57l2.92.08,1.08,3.92-1,1c-.66-1.7-2.58-2.6-3.43-4-.29-.47.45-.95.43-1Z"/>
      <path class="cls-21" d="M121.89,247.57v1c-.53-.13-1.33.21-1.96-.04-.29-.94.13-2.12-.04-2.96l2,2Z"/>
      <path class="cls-5" d="M194.89,51.57h1c-1.85,1.72-2.61.63-4,1l3-1Z"/>
      <path class="cls-22" d="M193.89,182.57c-.66.06-1.35-.08-2,0l1-2c.02.17.94.96,1,2Z"/>
      <path class="cls-22" d="M198.89,190.57c-.17-.74-1.73-2.14-2-3-.16-.51.11-1.38,0-2,1.49,1.59,2.18,2.64,2,5Z"/>
      <path class="cls-7" d="M196.89,49.57c-.41.52-.62,1.64-1,2h-1c-.67-2.94,1.46-1.65,2-2Z"/>
      <path class="cls-21" d="M125.89,248.57c-.48-.02-.56.15-2,0h2Z"/>
      <path class="cls-20" d="M206.89,144.57c-2.82,11.61-8.42,24.73-16,34-11.91,14.57-32.26,26.71-51,29-5.17.63-12.39,1.22-17.55,1.04-4.41-.15-9.21-2.19-13.45-1.04-16.87-3.47-28.55-9.44-41-21,1.2-1.44.6-3.66,3-3,.3.25,1.63.92,2,1,5.88,5.88,14.38,10.78,22,14,21.26,8.98,40.04,7.6,61-1,11.23-4.61,14.11-6.73,23-15,10.16-9.46,14.05-15.02,20-28,2.16-4.7,2.11-10.57,8-10Z"/>
      <path class="cls-6" d="M129.89,40.57c-.56,3.16,1.59,1.79,3.49,1.97,12.42,1.18,23.32,4.87,34.51,10.03,5.51,2.54,5.23,2.75,10,7h-4.01s0,2,0,2c-5.77-4.48-11.35-7.19-18-10-22.4-9.46-38.85-9.03-61,0-5.5,2.24-12.17,3.73-16,9-4.94,2.09-6.69,4.3-10.04,8.5-.78.97-.73,2.97-1.16,3.3-.83.66-2.97-.33-4.28,1.21-4.28,5.05-9.12,14.86-11.52,20.99-2.86,7.3-3.9,9.86-5,18-.04.26-.92,1.1-1.04,2.42-.33,3.72.3,7.8.04,11.58-.31.11-.64.86-1,1-1.25.49-2.72.57-4,1-.8-21.98,5.25-42.51,20-59,2.97-3.33,8.72-6.28,10-11,.32-.07.69.08,1,0,15.04-3.61,23.06-13.81,44.51-16.03,1.89-.2,4.04,1.21,3.49-1.97,3.17-.16,6.83-.16,10,0Z"/>
      <path class="cls-5" d="M44.89,127.57c1.44,2.88.57,6.26,1,9,.35,2.19,1.34,5.76,2,8,1.02,3.46,1.56,8.51,6,9-2.91,1.34-1.01,5.82,0,8l-4,2c-5.7-11.33-8.54-22.38-9-35,1.28-.43,2.75-.51,4-1Z"/>
      <path class="cls-1" d="M70.89,183.57c-2.4-.66-1.8,1.56-3,3-7.47-6.94-13.34-13.74-18-23l4-2c2.51,5.4,12.43,18.09,17,22Z"/>
      <path class="cls-1" d="M62.89,195.57c-.08,0-.63-.75-1.5-.79-1.73-.08-3.58,1.73-4.5-1.21.84-2.21,1.09-6.39-1-8,1.06-1.23,2.01-2.7,3-4,1.72,1.9,8.36,6.68,8.89,8.7.64,2.42-2.56,5.15-4.89,5.3Z"/>
      <path class="cls-15" d="M70.89,58.57c-1.28,4.72-7.03,7.67-10,11l-1-2c1.95-2.27,6.53-7.97,9-9,.44-.18,1.38.13,2,0Z"/>
      <path class="cls-1" d="M139.89,207.57c-6.8,1.88-14.97,2.57-22,2-2.17-.18-6.64-1.51-9-2,4.24-1.14,9.04.89,13.45,1.04,5.16.18,12.39-.41,17.55-1.04Z"/>
      <path class="cls-5" d="M177.89,59.57c.48.42,1.54.58,2,1,2.95,2.69,8.41,8.07,11,11,10.85,12.25,14.39,24.28,17,40l-4,1c-.29-1.98-.59-3.16-1-5-.98-4.47-2.28-8.77-4-13-1.61-3.96-7.75-15.96-10.55-18.93-1.56-1.65-2.89-.76-3.45-1.07.1-2.01-1.05-2.72-2-4-.28-.37-.7-.64-1-1-2.57-3.07-4.82-5.53-8-8v-2s4,0,4,0Z"/>
      <path class="cls-1" d="M206.89,144.57c-5.89-.57-5.84,5.3-8,10-5.23,1.46-5.62-4.01-11-3,.54-1.35,1.47-5.14,2-7l12.81-1.19c.72-2.54.81-5.22,1.19-7.81.74-5.04,1.13-8.82,1-14-.08-3.02-.56-6.02-1-9l4-1c2.35,14.12,2.43,18.87-1,33Z"/>
      <path class="cls-17" d="M119.89,40.57c.56,3.18-1.6,1.77-3.49,1.97-21.46,2.22-29.48,12.43-44.51,16.03,14.42-11.12,29.75-17.1,48-18Z"/>
      <path class="cls-17" d="M167.89,52.57c-11.2-5.16-22.09-8.85-34.51-10.03-1.89-.18-4.04,1.19-3.49-1.97,13.2.65,27.4,3.67,38,12Z"/>
      <path class="cls-20" d="M131.89,212.57l1,5c.05.33-.03.67,0,1s-.05.67,0,1c-2.02.21-6.62,1.42-8,2.54-1.12.91-.81,2.24-1,2.46-.43.48-1.67,1.89-2,2-.26-1.35-.97-.94-1-1-.2-.35-.8-.63-1-1-2.27-4.16-4.78-6.63-2-12,3.5.3,10.62.4,14,0Z"/>
      <path class="cls-3" d="M125.89,10.57c-1.31,1.01-2.67,1.02-4,0-.02-.25-.98-.73-1-1,1.62-.85.94-3.4,1-5,3.96-6.32,3.89,2.94,4,6Z"/>
      <path class="cls-2" d="M120.89,9.57c-.16-2.29-.26-2.99,1-5-.06,1.6.62,4.15-1,5Z"/>
      <path class="cls-4" d="M211.89,37.57c-2.1,4.75-4.02,4.79-7,8l-3-1c2.5-3.32,3.09-9.89,10-7Z"/>
      <path class="cls-24" d="M121.89,226.57c-.28.1-.67-.08-1,0v-1c.03.06.74-.35,1,1Z"/>
      <path class="cls-14" d="M125.89,232.57c2.67,2.1,4.18,12.07,1.77,13.82-.84.57-2.11-.02-2.77.18l1-14Z"/>
      <path class="cls-7" d="M202.89,206.57c2.24,1.79,4.53,7.97,7,3,.52.66,2.26,1.29,3,2-1.73,4.73-7.15,3.23-10,0-1.03-1.17-2.05-4.35-3-6,.97.21,2.23.39,3,1Z"/>
      <path class="cls-13" d="M204.89,204.57c2,2.07,2.47,1.8,5,5-2.47,4.97-4.76-1.21-7-3v-2s2,0,2,0Z"/>
      <path class="cls-13" d="M62.89,151.57c.99,2.66,4.77,8.29,5,9,.14.44-.02,1.37,0,2,0,.11-1.13.25-.93.85,3.44,1.62,5.52,6.6,7.93,9.66l-3.07,1.09.07,3.92c1.66,1.01,5.08-.58,5.5-2.51,5.3,6.25,12.24,9.73,19.51,13,2.57,4.33-1.34,4.73-2,6-8-.28-14.95-9.15-21.46-10.98-.65-.18-.49.99-.54.98-.37-.08-1.7-.75-2-1-4.57-3.91-14.49-16.6-17-22-1.01-2.18-2.91-6.66,0-8,1.55-.71,5.91-.46,7.81-.16l1.19-1.84Z"/>
      <path class="cls-10" d="M187.89,151.57c5.38-1.01,5.77,4.46,11,3-5.95,12.98-9.84,18.54-20,28-7.98,2.48-14.32,10.85-23,12-.81-1.28-4.28-2.1-3-6,6.77-3.11,8.92-4.25,15-9,1.6-1.25,3.18-2.42,4.51-3.99l1.5,2.99c1.7.42.62-1.39,1.1-1.8.28-.24,2.86,1.61,3.88-.71.48-2.47-5.81-1.24-.99-7.49,1.69-2.19,4.33-4.36,6.38-8.12.51-.94,2.93-5.03,1.62-5.88.56-1.15,1.8-2.51,2-3ZM178.39,178.57v1c.65-.33.65-.67,0-1Z"/>
      <path class="cls-7" d="M127.89,194.57l-1,6.99c9.98.06,19.36-3.05,29-4.99v1c-20.96,8.6-39.74,9.98-61,1,.03-.66-.05-1.34,0-2,7.9.93,16.51,5.19,24.55,5.05,4.72-.08,3.48-2.74,4.45-5.05.38-.9,1.37-1.65,1.01-3,1.12-.36,2.42.97,2.99,1Z"/>
      <path class="cls-8" d="M94.89,194.57c-.16.3.04,1.38,0,2-.05.66.03,1.34,0,2-7.62-3.22-16.12-8.12-22-14,.05.01-.1-1.16.54-.98,6.51,1.83,13.45,10.7,21.46,10.98Z"/>
      <path class="cls-13" d="M178.89,182.57c-8.89,8.27-11.77,10.39-23,15v-1c-.13-.58.2-1.69,0-2,8.68-1.15,15.02-9.52,23-12Z"/>
      <path class="cls-9" d="M96.89,53.57l1,7c-1.74.23-3.31.83-4.88,1.61-3.16,1.58-13.83,8.24-16.12,10.39-4.07-6.07-9.9,2.62-3,4-1.75,2.07-5.7,7.85-7.19,10.31-2.25,3.7-3.47,8.05-5.81,11.69-3.94-1.86-6.94-.44-9-4,2.4-6.13,7.24-15.94,11.52-20.99,1.31-1.55,3.45-.56,4.28-1.21.43-.33.38-2.33,1.16-3.3,3.35-4.2,5.1-6.41,10.04-8.5s10.75-5,16-7c.5-.19,1.49.19,2,0Z"/>
      <path class="cls-3" d="M155.89,51.57v2c-.66-.28-2.29.27-3,0-8.19-3.07-15.74-5.83-25-6-2.53-.05-4.28.97-5,1-11.91.44-14.89.95-26,5-.51.19-1.5-.19-2,0v-2c22.15-9.03,38.6-9.46,61,0Z"/>
      <path class="cls-16" d="M60.89,98.57c.57.27,1.13,1.04,2,1-2.18,5.09-3.03,6.11-4,12l-12,1c1.1-8.14,2.14-10.7,5-18,2.06,3.56,5.06,2.14,9,4Z"/>
      <path class="cls-8" d="M58.89,111.57c-.81,4.92-.98,7.92-1,13,0,.33,0,.67,0,1l-5.02-.57c-.58-3.6,1.67-6.41-4-2.91l2.01,3.48c-1.64.21-3.44.45-4.99,1.01.26-3.77-.37-7.86-.04-11.58.12-1.32,1-2.16,1.04-2.42l12-1Z"/>
      <path class="cls-13" d="M45.89,126.57c1.55-.56,3.36-.8,4.99-1.01l-2.01-3.48c5.67-3.49,3.42-.69,4,2.91l5.02.57c.05,3.17-.37,7.01,0,10l-12,1c-.43-2.74.44-6.12-1-9,.36-.14.69-.89,1-1Z"/>
      <path class="cls-17" d="M173.89,61.57c3.18,2.47,5.43,4.93,8,8-2.33.43-3.04-.83-4.53-1.97-6.26-4.81-14.23-10.98-21.47-14.03v-2c6.65,2.81,12.23,5.52,18,10Z"/>
      <path class="cls-17" d="M94.89,51.57v2c-5.25,2-10.84,4.82-16,7,3.83-5.27,10.5-6.76,16-9Z"/>
      <path class="cls-6" d="M59.89,143.57c.57,2.06,2.13,5.68,3,8l-1.19,1.84c-1.9-.29-6.26-.55-7.81.16-4.44-.49-4.98-5.54-6-9l12-1Z"/>
      <path class="cls-9" d="M57.89,135.57c.17,1.37,1.51,6.24,2,8l-12,1c-.66-2.24-1.65-5.81-2-8l12-1Z"/>
      <path class="cls-9" d="M155.89,53.57c7.24,3.05,15.21,9.22,21.47,14.03,1.48,1.14,2.19,2.4,4.53,1.97.3.36.72.63,1,1,.24,1.53.5,3.17,2,4,.56.31,1.89-.58,3.45,1.07,2.8,2.97,8.94,14.97,10.55,18.93-3.88,1.27-2.53,4.14-8,2l-2,3c-.06-.11-1.63-.27-2-1,1.97-1.04.76-3.25.22-4.71-1.57-4.26-8.16-13.71-11.22-17.29,8.29-2.71,2.74-11.2-3-4-1.42-1.28-6.4-3.72-8.25-5.03-3.48-2.46-6.64-6.37-11.75-6.97-.06-.12-1.19-.17-1-1l1-6c.71.27,2.34-.28,3,0Z"/>
      <path class="cls-13" d="M202.89,107.57c.41,1.84.71,3.02,1,5,.44,2.98.92,5.98,1,9l-4.62,5.9-5.38-1.41c2.61-.82,2.12-1.86,1.99-4.49l-3.99,3c.05-3.39-1.87-6.15.03-9.44l-2.11-1.17,1.07-5.39c3.51.42,7.6.03,11-1Z"/>
      <path class="cls-8" d="M198.89,94.57c1.72,4.23,3.02,8.53,4,13-3.4,1.03-7.49,1.42-11,1-.69-.08-1.83.34-2.04-.66.83-2.41.21-6.14-.96-8.34l2-3c5.47,2.14,4.12-.73,8-2Z"/>
      <path class="cls-17" d="M184.89,74.57c-1.5-.83-1.76-2.47-2-4,.95,1.28,2.1,1.99,2,4Z"/>
      <path class="cls-20" d="M190.89,138.57c-.38,1.88-.5,4.23-1,6s-1.46,5.65-2,7c-.2.49-1.44,1.85-2,3-2.28,4.66-5.64,10.06-9,14-1.58,1.85-8.23,8.58-10,10-22.09,17.81-54.69,17.92-78,3l2-2c36.74,22.93,91.17,1.14,98-42l2,1Z"/>
      <path class="cls-10" d="M192.89,124.57l3.99-3c.13,2.63.62,3.67-1.99,4.49l5.38,1.41,4.62-5.9c.13,5.18-.26,8.96-1,14l-12,1c.65-3.74.95-8.18,1-12Z"/>
      <path class="cls-5" d="M203.89,135.57c-.38,2.59-.47,5.27-1.19,7.81l-12.81,1.19c.5-1.77.62-4.12,1-6,.13-.62.89-1.39,1-2l12-1Z"/>
      <path class="cls-12" d="M132.89,217.57l-1-5c1.8.3.76,3.27,1,5Z"/>
      <path class="cls-17" d="M88.89,181.57c23.31,14.92,55.91,14.81,78-3l1,1c-6.08,4.75-8.23,5.89-15,9-8.41,3.86-14.34,6.64-25,6-.57-.03-1.88-1.37-2.99-1,.37,1.36-.63,2.11-1.01,3-5.09-2.38-10.38-2.02-15.99-3.51-3.94-1.05-7.35-2.84-11.01-4.49-7.27-3.27-14.2-6.74-19.51-13-.42,1.94-3.84,3.52-5.5,2.51l-.07-3.92,3.07-1.09c-2.41-3.06-4.48-8.04-7.93-9.66-.2-.6.93-.74.93-.85,6.89,7.52,12.32,13.45,21,19Z"/>
      <path class="cls-14" d="M123.89,196.57c-.97,2.31.27,4.97-4.45,5.05-8.04.14-16.65-4.12-24.55-5.05.04-.62-.16-1.7,0-2,.66-1.27,4.57-1.67,2-6,3.66,1.65,7.07,3.44,11.01,4.49,5.61,1.49,10.9,1.13,15.99,3.51Z"/>
      <path class="cls-5" d="M60.89,124.57c0,3.55.65,5.27,1,8,1.03,8.07,3.72,20.08,8,27l-2,1c-.23-.71-4.01-6.34-5-9-.87-2.32-2.43-5.94-3-8-.49-1.76-1.83-6.63-2-8-.37-2.99.05-6.83,0-10,0-.33,0-.67,0-1h3Z"/>
      <path class="cls-1" d="M69.89,159.57c2.52,4.07,16.21,17.01,21,20l-2,2c-8.68-5.55-14.11-11.48-21-19-.02-.63.14-1.56,0-2l2-1Z"/>
      <path class="cls-14" d="M152.89,188.57c-1.28,3.9,2.19,4.72,3,6,.2.31-.13,1.42,0,2-9.64,1.94-19.01,5.05-29,4.99l1-6.99c10.66.64,16.59-2.14,25-6Z"/>
      <path class="cls-8" d="M177.89,168.57c-4.81,6.25,1.48,5.01.99,7.49-1.02,2.32-3.6.47-3.88.71-.48.41.6,2.21-1.1,1.8l-1.5-2.99c-1.33,1.57-2.91,2.74-4.51,3.99l-1-1c1.77-1.42,8.42-8.15,10-10h1Z"/>
      <path class="cls-13" d="M185.89,154.57c1.31.85-1.11,4.94-1.62,5.88-2.05,3.76-4.69,5.93-6.38,8.12h-1c3.36-3.94,6.72-9.34,9-14Z"/>
      <path class="cls-8" d="M178.39,178.57c.65.33.65.67,0,1v-1Z"/>
      <path class="cls-2" d="M122.89,48.57l-1.04,5.96c-4.82-.07-18.08,1.68-21.7,4.31-.88.64-1.04,2.49-1.26,2.73l-1-1-1-7c11.11-4.05,14.09-4.56,26-5Z"/>
      <path class="cls-17" d="M97.89,60.57l1,1c-3.05,3.35-11.3,6.05-15.24,8.99-9.16,6.84-16.33,18.65-20.76,29.01-.87.04-1.43-.73-2-1,2.34-3.65,3.56-8,5.81-11.69,1.49-2.46,5.44-8.24,7.19-10.31.94-1.11,2.69-3.71,3-4,2.29-2.14,12.97-8.81,16.12-10.39,1.57-.78,3.14-1.38,4.88-1.61Z"/>
      <path class="cls-25" d="M76.89,72.57c-.31.29-2.06,2.89-3,4-6.9-1.38-1.07-10.07,3-4Z"/>
      <path class="cls-4" d="M127.89,47.57v7c7.69-.11,16.17,1.45,23,5l-.6,2.08c-17.08-6.21-34.24-4.97-51.4-.08.22-.24.38-2.1,1.26-2.73,3.62-2.63,16.88-4.38,21.7-4.31l1.04-5.96c.72-.03,2.47-1.05,5-1Z"/>
      <path class="cls-2" d="M152.89,53.57l-1,6h-1c-6.83-3.56-15.31-5.11-23-5v-7c9.25.17,16.81,2.93,25,6Z"/>
      <path class="cls-6" d="M98.89,61.57c17.17-4.89,34.33-6.12,51.4.08l.6-2.08h1c-.19.83.94.88,1,1,.23.49-.43,1.97.17,2.8.34.46,8.07,3.95,10.14,5.38,12.65,8.73,14.9,14.37,21.69,26.81l-2,1c-2.33-4.85-4.94-7.2-8-11-4.44-5.51-4.72-5.6-10-10-2.74-2.28-4.08-4.79-8-7-16.69-11.55-38.39-11.51-56.81-4.32-.52.2-4.45,1.35-2.19,2.32-6.34,2.75-6.97,4.02-12,8-5.81,4.6-6.47,5.16-11,11-9.5,12.23-13.97,23.18-14,39h-3c.02-5.08.19-8.08,1-13,.97-5.89,1.82-6.91,4-12,4.43-10.36,11.6-22.17,20.76-29.01,3.94-2.94,12.19-5.64,15.24-8.99Z"/>
      <path class="cls-1" d="M186.89,98.57c.37.73,1.94.89,2,1,1.16,2.2,1.79,5.93.96,8.34.22,1,1.35.58,2.04.66l-1.07,5.39,2.11,1.17c-1.91,3.29.01,6.04-.03,9.44-.05,3.82-.35,8.26-1,12-.11.61-.87,1.38-1,2l-2-1c1.89-11.95-.74-30.05-6-41l2-1c.36.66,1.17,1.35,2,3Z"/>
      <path class="cls-17" d="M152.89,60.57c5.11.6,8.28,4.5,11.75,6.97,1.85,1.31,6.83,3.75,8.25,5.03.19.17,2.11,2.96,3,4,3.06,3.58,9.65,13.03,11.22,17.29.54,1.46,1.75,3.68-.22,4.71-.83-1.65-1.64-2.34-2-3-6.79-12.44-9.04-18.08-21.69-26.81-2.07-1.43-9.81-4.92-10.14-5.38-.6-.83.06-2.31-.17-2.8Z"/>
      <path class="cls-25" d="M175.89,76.57c-.89-1.04-2.81-3.83-3-4,5.74-7.2,11.29,1.29,3,4Z"/>
      <path class="cls-14" d="M174.89,85.57c3.06,3.8,5.67,6.15,8,11,5.26,10.95,7.89,29.05,6,41-6.83,43.14-61.26,64.93-98,42-4.79-2.99-18.48-15.93-21-20-4.28-6.92-6.97-18.93-8-27h1c2.95,9.49,5.18,19.19,11.14,27.41,1.06,1.46,2.76,1.46,2.86,1.59,5.43,6.89,4.59,5.72,11,11,.15.13.11,1.74,1.04,2.43,7.84,5.86,18.18,10.17,27.97,10.58l2-9.01c-.21.75-1.05,4.75-1,5,.2.93,2.02.65,2.01,1.5-2.16.9-2.32.79-2.02,3.49h14.01s1.99-4,1.99-4c.23.76-.18,2.08,0,3,10.67-.41,19.54-5.56,28-11.02-1.67-2.41-2.99-2.9-4-5.99.9-.16,2.27.24,3,0-.16,1.54.16,3.76,2,4,1.99.26,9.77-7.53,9.84-9.34.02-.58-.66-1.15-.84-1.66,3.64.47,4.81-2.61,6.42-5.08,4.33-6.68,7.52-15.93,7.59-23.92-1.91-.21-4.18.29-6.01,0v-1c1,0,2,0,3,0,1.33,0,2.67.02,4,0-.65-3.23,1.73-12.88-2-14.01.69-7.51-.27-11.87-3.5-19-1.07-2.36-6.03-11.42-8.5-11,.15-.54-.1-1.37,0-2h2Z"/>
      <path class="cls-22" d="M74.89,85.57c2.97-.67,1.64,1.46,2,2-2.23-.5-2.12,1.23-2.98,2.47-6.05,8.76-8.76,17.36-10.02,27.53-.6,4.79-2.38,10.14,0,15-.33,0-.67,0-1,0h-1c-.35-2.73-1.01-4.45-1-8,.03-15.82,4.5-26.77,14-39Z"/>
      <path class="cls-22" d="M121.89,62.57c-4.61,1.36-4.39,6.16-3,10l-.98,1.01-1.03-10.02c-8.83,1.22-20.17,4.58-27.15,10.37-1.45,1.2-2.48.76-1.84,3.64h-1l-1-3c5.03-3.98,5.66-5.25,12-8,9.81-4.26,13.7-4.94,24-4Z"/>
      <path class="cls-22" d="M156.89,68.57c3.92,2.21,5.26,4.72,8,7v1c-.35-.2-1.41.13-2,0-5.21-7.38-21.42-11.65-29.99-12.99-.12.96.16,2.1,0,2.99-.78-2.53-2.38-3.53-5-4,8.15-2.67,21.79,1.93,29,6Z"/>
      <path class="cls-9" d="M156.89,68.57c-7.21-4.07-20.85-8.67-29-6-1.74-.31-4.1.17-6,0-10.3-.94-14.19-.26-24,4-2.26-.97,1.66-2.11,2.19-2.32,18.43-7.19,40.12-7.23,56.81,4.32Z"/>
      <path class="cls-15" d="M86.89,77.57c-2.57.28-9.05,6.36-8.62,9.02,1.05,6.52,7.85,3.39,10.67,5.44,2.32,1.69-.44,9.95,4.95,8.55-.6,2.05-.06,4.18,2,5-.3.45-.58,1.3-1,2,.03-3.29-4.58-4.89-5.48-7.02-1.13-2.66.47-6.67-3.24-7.76-5.12-1.5-5.48.54-9.28-5.22-.36-.54.97-2.67-2-2,4.53-5.84,5.19-6.4,11-11l1,3Z"/>
      <path class="cls-12" d="M174.89,85.57h-2c-.16-.58-7.48-8.7-8-9v-1c5.28,4.4,5.56,4.49,10,10Z"/>
      <path class="cls-19" d="M77.89,128.57c2.04,5.97,10.49,2.74,13.04,4.46,1.99,1.34,3.21,9.62,3.96,11.54.11.29-.1.7,0,1-.63.37-1.39.59-2,1-4.74,3.17-2.66,7.62-6,12-4.18.9-7.92-1.65-10,3-.1-.13-1.81-.13-2.86-1.59-5.95-8.22-8.19-17.92-11.14-27.41.33,0,.67,0,1,0,7.93.1,5.19-1.2,9-3,1.42-.67,3.5-.63,5-1Z"/>
      <path class="cls-19" d="M118.89,169.57c.05.15,1.86.54,2.04,2.5.26,2.87-1.8,3.67-2.04,4.5l-2,9.01c-9.79-.41-20.13-4.72-27.97-10.58-.92-.69-.88-2.3-1.04-2.43,3.7-1.37,3.09-4.56,4-7,2.35-6.3,6.04-2.77,10.29-5.96,1.28-.96,1.09-2.16,1.71-3.04.32-.46,1.82-.92,2-2,1.95,1.31,9.59,2.51,10.54,3.96,1.63,2.46-1.23,8.74,2.46,11.04Z"/>
      <path class="cls-19" d="M167.89,132.57c3.19-.48,2.43-4.24,7.3-2.98.71.18.8,2.37,4.7,2.98,1.83.29,4.09-.21,6.01,0-.07,7.99-3.26,17.24-7.59,23.92-1.6,2.47-2.78,5.56-6.42,5.08-.11-.3-.76-.63-1-1-.42-.63.06-1.88-1.55-2.91-2.05-1.32-6.01-.64-7-2.03s.08-3.91-2.45-7.05c-.41-.51-4.51-3.87-5-4,.71-1.62,3.46-11.43,4.14-11.86,2.81-.61,6.11.28,8.86-.14Z"/>
      <path class="cls-23" d="M184.89,117.57c-.44-.13-1.38,0-2,0-2.42.01-3.97.8-6,1-.07,0,.15-1.18-.98-.99.97,2.5-4,2.55-5.02,1.99-.15-.09.59-1.84-1.9-2.56-3.2-.93-6.81-.26-10.1-.44-.75-2.88-4.01-8.75-4-11,1.64-.36,4.14-2.57,5-4,1.59-2.64,2.14-8.05,2.93-8.57,1.82-1.21,8.48.33,10.07-5.43,2.47-.42,7.43,8.64,8.5,11,3.23,7.13,4.19,11.49,3.5,19Z"/>
      <path class="cls-23" d="M144.89,155.57c.85.34,2.13,1.4,3,2,.46.32.82,1.99,1.97,2.49,2.32,1,5.38-.2,7.15,1.95.55.66.21,4.52.88,6.56,1.01,3.09,2.33,3.57,4,5.99-8.47,5.45-17.33,10.61-28,11.02-.17-.92.23-2.25,0-3-.27-.88-.91-1.65-1-2-.15-.59.19-1.53,0-2-.39-.98-.77-1.47-1-2-.31-.71-1.71-.09-2-3-.08-.77-.16-2.38,0-3,1.92.58,3.49-2.59,3.73-3.75,1.69-7.98-2.06-8.19,8.28-11.82,1.28-.64,2,.18,2.99.57Z"/>
      <path class="cls-10" d="M159.89,148.57l-5,7.99h4.01s-.02,4.01-.02,4.01c1.85.12,3.96-.71,5.01.99-3.73,1.64-1.12,2.86,0,5-.99.47-2.05,1.7-3,2-.73.24-2.1-.16-3,0-.67-2.04-.33-5.9-.88-6.56-1.77-2.15-4.83-.95-7.15-1.95-1.15-.5-1.51-2.17-1.97-2.49,2.56-4.29,4.99-8.38,7-13,.49.13,4.59,3.49,5,4Z"/>
      <path class="cls-10" d="M131.89,161.57c.08,1.68.27,4.51,0,6-1.46-.82-3.63.99-4,1-.33.01-.67,0-1,0-.28,0-1.52-1.66-3-.99.18,1.71.92,3.24,1,4.99.06,1.31.07,2.69,0,4-.05,1,.05,2.01,0,3.01l-1.99-1.02-.07,2.91-4.94.11c-.05-.25.79-4.25,1-5,.24-.83,2.3-1.63,2.04-4.5-.18-1.96-1.99-2.35-2.04-2.5-.69-1.99-.93-3.89-1-6l14-2Z"/>
      <path class="cls-10" d="M86.89,158.57c.32-.07.68.07,1,0l-1.99,4.48,5.99,2.52c-.91,2.44-.3,5.63-4,7-6.41-5.28-5.57-4.11-11-11,2.08-4.65,5.82-2.1,10-3Z"/>
      <path class="cls-1" d="M127.89,176.57l-1,3.99h5s1,0,1,0c.09.35.73,1.12,1,2l-1.99,4.01h-14.01c-.31-2.72-.14-2.61,2.02-3.51.01-.85-1.81-.57-2.01-1.5l4.94-.11.07-2.91,1.99,1.02c.06-.99-.04-2.01,0-3.01h3Z"/>
      <path class="cls-1" d="M170.89,160.57c.24.37.89.7,1,1,.18.51.87,1.08.84,1.66-.08,1.8-7.85,9.59-9.84,9.34.84-3.28,2.66-2.82,1-6-1.12-2.14-3.73-3.36,0-5,.6.98.31,4.86,2.48,3.99,4.92-1.96-1.5-7.86,4.52-4.99Z"/>
      <path class="cls-8" d="M164.89,76.57c.52.3,7.84,8.42,8,9-.1.63.15,1.46,0,2l-4.44,2.06-.56-2.06c.92.1,1.26-.56.87-1.34-.82-1.66-4.5-6.73-5.87-8.66-.16-.22.16-.78,0-1,.59.13,1.65-.2,2,0Z"/>
      <path class="cls-15" d="M162.89,172.57c-1.84-.24-2.16-2.46-2-4,.95-.3,2.01-1.53,3-2,1.66,3.18-.16,2.72-1,6Z"/>
      <path class="cls-23" d="M76.89,87.57c3.8,5.76,4.16,3.72,9.28,5.22,3.71,1.09,2.1,5.1,3.24,7.76.91,2.13,5.52,3.73,5.48,7.02-1.23,2.04-2.71,7.76-3.98,8.52-3.06,1.83-11.27-1.8-12.02,4.48-4.52,1.29-9.06-5.26-15-3,1.26-10.17,3.98-18.77,10.02-27.53.86-1.24.75-2.97,2.98-2.47Z"/>
      <path class="cls-23" d="M87.89,77.57c-.64-2.88.39-2.44,1.84-3.64,6.98-5.78,18.32-9.15,27.15-10.37l1.03,10.02.98-1.01c3.62,2.27,3.29,4.06,1,7-.55.71-2.28.86-2.8,2.68-.84,2.94.27,6.25-.3,9.22l-11.9,3.1c-.63-1.23-1.73-1.59-2-2s.45-2.3-.98-3.49c-2.03-1.69-7.71-1.25-7.99-1.54-.2-.21.07-3.95-.75-5.77-1.04-2.29-2.53-1.65-3.27-2.21-.52-.39-.72-1.63-2-2Z"/>
      <path class="cls-16" d="M86.89,77.57h1c1.28.37,1.48,1.61,2,2,3.02,3.3-3.58,5.29-3,7.49,1.84.48,3.65,4.04,4.64,4.34,1.99.61,4.99-.73,6.37,1.17-3.91.14-5.78,3.17-2.21,4.16l.17,1.29c-.52.82-1.7,1.66-1.96,2.55-5.4,1.41-2.63-6.86-4.95-8.55-2.81-2.05-9.61,1.09-10.67-5.44-.43-2.66,6.06-8.73,8.62-9.02Z"/>
      <path class="cls-16" d="M127.89,62.57c2.62.47,4.22,1.47,5,4-.33,1.8-.61,2.51-1,4-1.86,1.01-3.94,0-6,0-.67,0-1.33-.01-1.99,0l.99,12c-.88-.07-2.17-.12-3,0l-2-3c2.29-2.94,2.62-4.73-1-7-1.39-3.84-1.61-8.64,3-10,1.9.17,4.26-.31,6,0Z"/>
      <path class="cls-23" d="M162.89,76.57c.16.22-.16.78,0,1-.63.37-1.39.59-2,1-5.13,3.43-2.64,7.2-3.88,8.56-1.54,1.69-4.46,1.43-6.49,2.57s-3.32,3.74-5.63,4.88c-1.44.71-2.37.98-4,1-.14-.28.3-1.18-.18-1.79-.99-1.28-6.61-1.81-6.89-2.82-.05-2.88.45-5.78-.2-8.64-.57-2.51-3.72-4.1-3.77-4.41-.26-1.68,1.46-5.11,2.04-7.34.39-1.49.67-2.2,1-4,.16-.9-.12-2.03,0-2.99,8.57,1.34,24.79,5.61,29.99,12.99Z"/>
      <path class="cls-14" d="M154.89,105.57c-.01,2.25,3.25,8.12,4,11,.22.85.97,1.79,1,2,.34,2.27-.47,12.55,0,13.01h8.01s0,.99,0,.99c-2.75.41-6.05-.47-8.86.14-.68.43-3.43,10.24-4.14,11.86l-2.07.65-7.93,10.35c-.99-.4-1.71-1.21-2.99-.57-10.34,3.63-6.58,3.84-8.28,11.82-.25,1.16-1.81,4.33-3.73,3.75.23-.9,1.85-2.2,2-3,.27-1.49.08-4.32,0-6-.03-.66.05-1.34,0-2h-14.01c.01,1.32-.04,2.67,0,4,.07,2.11.31,4.01,1,6-3.69-2.3-.82-8.58-2.46-11.04-.96-1.44-8.59-2.65-10.54-3.96-3.02-2.03-6.4-9.29-11-10-.75-1.92-1.97-10.2-3.96-11.54-2.55-1.72-11.01,1.51-13.04-4.46.91-.22,1.91-1.01,3-1,1.93,3.8,5.92,4.7,9.99,3.99-.84-1.81.97-4.31,1.01-4.99,3.71,13.93,8.01,22.74,22,28,7.68,2.89,14.13,4.58,22,0,.32-.06.68.06,1,0,.78-.14,1.47-.38,2-1,12.59-4.11,18.81-19.73,18-32-.41-6.13-2-8.53-4-14-.19-.51.18-1.46,0-2,.64-.09,1.42.13,2,0Z"/>
      <path class="cls-13" d="M96.89,154.57c-.33-.68-1.04-2.25-1.99-2l.5,4.97c-2.86-2.63-5.36.58-7.51,1.02-.32.07-.68-.07-1,0,3.34-4.38,1.26-8.83,6-12-1.27,4.47,6.5,4.39,4,8Z"/>
      <path class="cls-6" d="M105.89,154.57c-.18,1.08-1.68,1.54-2,2-.66-.06-1.35.08-2,0-.91-3.89-5.78-7.51-7-11-.1-.3.11-.71,0-1,4.6.71,7.98,7.97,11,10Z"/>
      <path class="cls-1" d="M101.89,156.57c-1.58-.2-4.74.12-4.92-.04-.38-.34.11-1.59-.08-1.96,2.5-3.61-5.27-3.53-4-8,.61-.41,1.37-.63,2-1,1.22,3.49,6.09,7.11,7,11Z"/>
      <path class="cls-15" d="M96.89,154.57c.18.38-.31,1.62.08,1.96.18.16,3.34-.16,4.92.04.65.08,1.34-.06,2,0-.62.88-.43,2.08-1.71,3.04-4.25,3.19-7.95-.34-10.29,5.96l-5.99-2.52,1.99-4.48c2.15-.44,4.65-3.65,7.51-1.02l-.5-4.97c.95-.25,1.66,1.31,1.99,2Z"/>
      <path class="cls-12" d="M170.89,160.57c-6.01-2.87.41,3.03-4.52,4.99-2.18.87-1.88-3.01-2.48-3.99-1.05-1.71-3.16-.88-5.01-.99l.02-4.02h-4.01s5-7.99,5-7.99c2.53,3.15,1.44,5.63,2.45,7.05s4.95.72,7,2.03c1.61,1.03,1.13,2.28,1.55,2.91Z"/>
      <path class="cls-15" d="M167.89,87.57l.56,2.06,4.44-2.06c-1.6,5.76-8.25,4.22-10.07,5.43-.79.52-1.34,5.93-2.93,8.57-.17-2.76-2.02-5.7-4.99-6.02v-1.47c3.53-1.56,3.85-2.12,5.52-5.52l5.47,2c.39-.4-.52-2.62-.99-2.99h3Z"/>
      <path class="cls-12" d="M159.89,101.57c-.86,1.43-3.36,3.64-5,4,.01-2.84,2.53-3.67,5-4Z"/>
      <path class="cls-5" d="M154.89,144.57c-2.01,4.62-4.44,8.71-7,13-.87-.6-2.15-1.66-3-2l7.93-10.35,2.07-.65Z"/>
      <path class="cls-12" d="M126.89,168.57l.51,2.01h1.48s0-1.5,0-1.5l-.99-.51c.37-.01,2.54-1.82,4-1-.15.8-1.77,2.1-2,3-.16.62-.08,2.23,0,3-1.07,1.45-.81,2.52-3,2l-.1-2.87-1.9-.13c-.08-1.75-.82-3.28-1-4.99,1.47-.67,2.71.99,3,.99Z"/>
      <path class="cls-12" d="M131.89,176.57c.23.53.61,1.02,1,2l-1,2h-5s1-4,1-4h4Z"/>
      <path class="cls-14" d="M124.89,172.57l1.9.13.1,2.87c2.18.52,1.92-.55,3-2,.29,2.91,1.69,2.29,2,3h-7c.07-1.31.06-2.69,0-4Z"/>
      <path class="cls-14" d="M132.89,180.57h-1l1-2c.19.47-.15,1.41,0,2Z"/>
      <path class="cls-1" d="M117.89,163.57c-.04-1.33,0-2.68,0-4h14.01c.05.67-.04,1.34,0,2l-14,2Z"/>
      <path class="cls-14" d="M127.89,168.57l.99.51v1.48s-1.48.01-1.48.01l-.51-2.01c.33,0,.67.01,1,0Z"/>
      <path class="cls-9" d="M167.89,87.57h-3c-.22-.17-1.39.26-1.97-.07,2.33-4.46-2.36-4.85-2.03-8.93.61-.41,1.37-.63,2-1,1.37,1.93,5.05,7,5.87,8.66.39.79.05,1.45-.87,1.34Z"/>
      <path class="cls-12" d="M131.89,70.57c-.58,2.23-2.3,5.65-2.04,7.34.05.31,3.21,1.91,3.77,4.41.65,2.86.15,5.76.2,8.64.27,1.01,5.9,1.54,6.89,2.82.47.61.03,1.51.18,1.79,1.63-.02,2.56-.29,4-1,2.88,5.13,5.89,4.68,8,11,.18.54-.19,1.49,0,2-2.4-2.15-4.1-4.8-6.5-7-2.72-2.5-3.27-.67-5.5-5-3.78.05-6.12-1.7-9.49-2.01-13.96-1.28-29.34,3.54-35.51,17.01-1.45,3.17-1.77,11.2-5,11-.21-.77.24-2.05-.02-2.97-1.99-.14-3.99.02-5.98-.03-5.64-.14-4.58,1.6-6,2,.75-6.28,8.96-2.65,12.02-4.48,1.27-.76,2.75-6.48,3.98-8.52.42-.7.7-1.55,1-2,2.11-3.19,6.3-6.93,9.57-8.99.65-.67-.22-1.34-.57-2.01l11.9-3.1c.58-2.97-.54-6.28.3-9.22.52-1.82,2.24-1.97,2.8-2.68l2,3c-.64.09-2.87.97-3.04,1.67l.03,6.34h13.01c.81-2.47-.61-4.26-1-6.01-.69-3.06,1.54-4.5-4.01-5.01,2.55-3.65-.91-5.41-.99-8.99,2.06,0,4.14,1.01,6,0Z"/>
      <path class="cls-13" d="M97.89,92.57c1.17-.04,3.33.91,5,0,.27.41,1.37.77,2,2,.34.67,1.21,1.34.57,2.01-3.27,2.07-7.45,5.8-9.57,8.99-2.06-.82-2.6-2.95-2-5,.26-.88,1.44-1.72,1.96-2.55l-.17-1.29c-3.57-1-1.7-4.02,2.21-4.16Z"/>
      <path class="cls-15" d="M89.89,79.57c.74.56,2.23-.08,3.27,2.21.83,1.81.55,5.56.75,5.77.29.29,5.97-.15,7.99,1.54,1.43,1.19.71,3.08.98,3.49-1.67.91-3.83-.04-5,0-1.37-1.9-4.38-.55-6.37-1.17-.99-.3-2.79-3.86-4.64-4.34-.58-2.2,6.02-4.18,3-7.49Z"/>
      <path class="cls-13" d="M124.89,82.57c.07,0-.12.79,1,1s2.73-.15,4,0c.13.45.56.83,1,1,.39,1.74,1.81,3.54,1,6h-13.01s-.03-6.33-.03-6.33c.16-.7,2.39-1.58,3.04-1.67.83-.12,2.12-.07,3,0Z"/>
      <path class="cls-6" d="M125.89,70.57c.08,3.58,3.54,5.34.99,8.99,5.55.51,3.32,1.95,4.01,5.01-.44-.17-.87-.55-1-1-.17-.58.53-1.79-.53-2.04l-3.47.05v2c-1.12-.21-.93-.99-1-1l-.99-12c.66-.02,1.33,0,1.99,0Z"/>
      <path class="cls-8" d="M160.89,78.57c-.33,4.09,4.36,4.48,2.03,8.93.58.33,1.75-.11,1.97.07.48.38,1.39,2.6.99,2.99l-5.47-2c-1.67,3.39-1.99,3.95-5.51,5.52v1.47c2.97.32,4.82,3.25,4.99,6.02-2.47.33-4.99,1.16-5,4-.58.13-1.36-.09-2,0-2.11-6.32-5.12-5.87-8-11,2.3-1.14,3.56-3.71,5.63-4.88s4.95-.88,6.49-2.57c1.24-1.36-1.24-5.13,3.88-8.56Z"/>
      <path class="cls-5" d="M98.89,111.57c-1.03,2.45-2.99,11.7-2.92,14.34.09,3.23,1.34,10.56,5.92,6.66.1.4,1.61,1.34,2,2,1.36,2.31.58,1.88,3,4,.82,1.29,2.14,1.92,1.3,3.7-1.09,2.3-4.66,1.98-2.81,4.31.98,1.23,12.65,6.42,14.2,6.68,1.06.18,2.96-.54,4.32-.69,1.76,4.88,15.31-3.05,18-5,.62-.45,2.17-2.2,3-3,.08-.07,1.08.28,2.04-.69,4.79-4.84,7.52-15.68,6.96-22.31h3c.81,12.27-5.41,27.89-18,32-.71.23-1.61-.04-2,1-.32.06-.68-.06-1,0-7.29,1.35-14.69,1.61-22,0-13.99-5.26-18.29-14.07-22-28,.14-2.36-.48-3.11-1-5,3.23.2,3.55-7.83,5-11l3,1Z"/>
      <path class="cls-1" d="M140.89,95.57c2.24,4.33,2.78,2.5,5.5,5,2.4,2.2,4.1,4.85,6.5,7,2,5.47,3.59,7.87,4,14h-3c-.2-2.42-1.37-4.05-2-6-1.65-5.12-1.36-4.93-5-9-1.46-1.64-4.27-5.29-6.23-6.72-2.05-1.5-9.5-2.32-10.42-4.27h-3.35s0,2.98,0,2.98c3.98-.63,3.07,1.03,2.99,4.01-1.14-.26-3.01.31-4,0-.07-.02-.96-.94-1-1-.63-1.07-.79-3.63-1.01-5-6.86.74-13.66,3.58-18.99,8-2.23,1.85-4.84,4.26-6,7l-3-1c6.17-13.47,21.55-18.29,35.51-17.01,3.38.31,5.71,2.06,9.49,2.01Z"/>
      <path class="cls-7" d="M135.89,154.57c-7.87,4.58-14.32,2.89-22,0,7.31,1.61,14.71,1.35,22,0Z"/>
      <path class="cls-7" d="M138.89,153.57c-.53.62-1.22.86-2,1,.39-1.04,1.29-.77,2-1Z"/>
      <path class="cls-15" d="M125.89,83.57v-2s3.47-.05,3.47-.05c1.06.25.36,1.47.53,2.04-1.27-.15-2.82.22-4,0Z"/>
      <path class="cls-18" d="M107.89,114.57c.07.98.78,1.45,1,2,.18.45-.12,1.37.01,2l4.47-2c1.44,3.73,2.76,3.7,5.52,6l-2.85,3.47c.66,1.45,1.01,2.93.85,4.53-4.9-2.4-8.44,3.95-13,4-.39-.66-1.9-1.6-2-2-1.58-6.2.45-12.57,3-18h3Z"/>
      <path class="cls-8" d="M106.89,138.57c1.86,1.63,4.79,2.33,6,3,.46.26.75.87,1,1,6.06,3.18,8.99,5.48,16.34,2.79,1.33-.49,2.13-1.57,2.66-1.79,1.79-.74,2.93-1.5,5-2,1.3,8.18-16.29,4.62-14,11-1.36.15-3.26.87-4.32.69-1.55-.26-13.22-5.45-14.2-6.68-1.85-2.33,1.72-2.01,2.81-4.31.84-1.78-.47-2.41-1.3-3.7Z"/>
      <path class="cls-13" d="M153.89,121.57c.56,6.63-2.18,17.47-6.96,22.31-.96.97-1.96.62-2.04.69.85-1.98-3.84-3.95-5-4v-1c.4-.91,1.52-.71,2-1,4.54-2.7,7.22-8.17,6.93-13.43-.03-.5-1.72-7.97-1.93-8.57,1.6-.06,4.15.62,5-1,.63,1.95,1.8,3.58,2,6Z"/>
      <path class="cls-9" d="M104.89,104.57l4,3c-2.42,2.18-2.83,4.5-4,7-2.55,5.43-4.58,11.8-3,18-4.58,3.9-5.84-3.43-5.92-6.66-.07-2.65,1.89-11.9,2.92-14.34,1.16-2.74,3.77-5.15,6-7Z"/>
      <path class="cls-15" d="M144.89,144.57c-.83.8-2.38,2.55-3,3-5.51,3.08-11.76,4.31-18,5-2.29-6.38,15.3-2.82,14-11,.62-.15,1.57-1.02,2-1,1.16.05,5.85,2.02,5,4Z"/>
      <path class="cls-17" d="M116.89,130.57c-.13,1.22-.61,1.97-1,3s-.97,1.89-1,3c-1.04.73-3.66,3.95-2,5-1.21-.67-4.14-1.37-6-3-2.42-2.12-1.64-1.69-3-4,4.56-.05,8.1-6.4,13-4Z"/>
      <path class="cls-7" d="M141.89,147.57c-2.69,1.95-16.24,9.88-18,5,6.24-.69,12.49-1.92,18-5Z"/>
      <path class="cls-5" d="M129.89,102.57c.08-2.97.99-4.63-2.99-4.01v-2.99s3.34,0,3.34,0c.92,1.95,8.37,2.76,10.42,4.27s4.77,5.09,6.23,6.72c-1.84.4-4.14,1.36-6,1-1.99-.39-6.32-3.95-11-5Z"/>
      <path class="cls-16" d="M104.89,104.57c5.33-4.42,12.13-7.26,18.99-8,.22,1.37.37,3.93,1.01,5-4.21-.41-12.9,3.21-16,6l-4-3Z"/>
      <path class="cls-4" d="M124.89,101.57c.07,0,.35,1.02,1,1,.99.31,2.86-.26,4,0,4.68,1.05,9.01,4.61,11,5v1h-1.49c-.68.19-.39.7-.51,1-5.99-9.3-29.56-5.75-31,4-.04.3-.02.69,0,1h-3c1.17-2.5,1.58-4.82,4-7,3.1-2.79,11.79-6.41,16-6Z"/>
      <path class="cls-16" d="M146.89,106.57c3.64,4.07,3.35,3.88,5,9-.85,1.62-3.4.94-5,1-.76-2.15-3.72-7.63-6-8v-1c1.86.36,4.16-.6,6-1Z"/>
      <path class="cls-5" d="M125.89,102.57c-.65.02-.93-.99-1-1,.04.06.93.98,1,1Z"/>
      <path class="cls-11" d="M138.89,109.57c-.12.31-.05,1.48,0,2,.06.65-.09,1.34,0,2h2c-.06,1.84.93,3.24,1,5-2.79-.47-4.55-1.45-5-3.99-.16-.9.13-2.03,0-3l-8,1.01c-.73,3.18,1.72,1.39,2.73,2.18s1.11,3.5,1.27,4.81c-.35.03-.72-.07-1,0-2.93.77-3.8,3-5.08,5.96-3.22-.72-3.86-2.86-3.93-5.96l-2,5c-1.31.29-1.18-1.32-1.99-2-2.76-2.31-4.08-2.27-5.52-6l-4.47,2c-.13-.62.17-1.55-.01-2l-1-3c1.44-9.75,25.01-13.3,31-4Z"/>
      <path class="cls-25" d="M118.89,122.57c.81.67.68,2.28,1.99,2l2-5c.07,3.1.71,5.25,3.93,5.96,1.29-2.96,2.15-5.2,5.08-5.96-2.68,4.51,2.08,3.25,0,6.4,3.06,1.3.94,1.46,1.01,1.6-2.13,1.14-.54,3.44,0,5,.11.31-.12.73,0,1l-7.48,4.08c-3.2.16-2.29-1.69-3.01-1.86-.27-.06-5.2-.26-5.51-.22l-1-2c.39-1.03.87-1.78,1-3,.16-1.6-.19-3.09-.85-4.53l2.85-3.47Z"/>
      <path class="cls-17" d="M108.89,116.57c-.22-.55-.93-1.02-1-2-.02-.31-.04-.7,0-1l1,3Z"/>
      <path class="cls-18" d="M139.89,139.57v1c-.43-.02-1.38.85-2,1-2.07.5-3.21,1.26-5,2-7.25,1.78-12.02.07-19-1-.25-.13-.54-.74-1-1-1.66-1.05.96-4.27,2-5,.4-.29,1.65-.96,2-1,.31-.03,5.24.16,5.51.22.73.17-.19,2.02,3.01,1.86l7.48-4.08c1.2,2.84,3.69,5.85,7,6Z"/>
      <path class="cls-11" d="M132.89,143.57c-.53.22-1.33,1.31-2.66,1.79-7.35,2.69-10.29.39-16.34-2.79,6.98,1.07,11.75,2.78,19,1Z"/>
      <path class="cls-18" d="M140.89,108.57c2.28.37,5.24,5.85,6,8,.21.6,1.91,8.06,1.93,8.57.28,5.26-2.4,10.73-6.93,13.43-.05-.99.07-2.01,0-3-.24-3.45-1.71-1.77-3-3-.16-.15.2-1.38-.06-1.94l-3.93.94c.87-2.37-1.52-3.05-2.01-4-.07-.14,2.06-.29-1.01-1.6,2.09-3.15-2.67-1.89,0-6.4.28-.07.65.03,1,0,.66-.05,1.34.06,2,0v-5.02s2,0,2,0c.45,2.54,2.21,3.52,5,3.99-.07-1.76-1.05-3.16-1-4.99,0-.11,1.4-.93,1-1.99h-3c-.05-.52-.12-1.7,0-2.01s-.17-.81.51-.99h1.49Z"/>
      <path class="cls-8" d="M135.89,135.57c.8.82,1.29,2.37,2.54,2.99l3.46-2.99c.07.99-.05,2.01,0,3-.48.29-1.6.09-2,1-3.31-.15-5.8-3.16-7-6-.12-.27.11-.69,0-1,.79,1.21,2.03,2.01,3,3Z"/>
      <path class="cls-8" d="M116.89,135.57c-.35.04-1.6.71-2,1,.03-1.11.63-2.01,1-3l1,2Z"/>
      <path class="cls-25" d="M132.89,119.57c-.15-1.32-.26-4.03-1.27-4.81s-3.47,1-2.73-2.18l8-1.01c.13.97-.16,2.1,0,3h-2s0,5.01,0,5.01c-.66.05-1.34-.06-2,0Z"/>
      <path class="cls-25" d="M138.89,111.57h3c.41,1.07-.99,1.89-1,2h-2c-.09-.66.06-1.35,0-2Z"/>
      <path class="cls-4" d="M132.89,127.57c.48.94,2.87,1.63,2.01,4l3.93-.94c.27.56-.1,1.79.06,1.94-.82,1.71-.32,3.2-3,3-.97-.99-2.21-1.79-3-3-.54-1.56-2.13-3.86,0-5Z"/>
      <path class="cls-25" d="M138.89,132.57c1.29,1.23,2.76-.45,3,3l-3.46,2.99c-1.26-.62-1.74-2.17-2.54-2.99,2.68.2,2.18-1.29,3-3Z"/>
      <g>
        <path class="cls-15" d="M245.89,122.57c.54-.21,4.04-.28,4.01.51-1.63,13.85-14.38,4.35-23.01,4.49.17-.5-.11-1.38,0-2,3.76.31,7.16-.93,11-1,1.02-.02,2.57,1.62,5.3.84,1.76-.5,2.49-2.76,2.7-2.84Z"/>
        <path class="cls-10" d="M219.89,117.57c.8.65,4.73,3.84,5,4-.13.95.19,2.14,0,3-.1.44-1.04,3.37-1.99,3l-2-4-1.02,7.99c-1.66.05-3.33.01-4.99,0l1-14c1.33,0,2.67,0,4,0Z"/>
        <path class="cls-16" d="M30.89,124.57c.14.57-.12,1.39,0,2-.94-.13-2.15.19-3,0-.38-.08-1.06-.94-2-1s-2.01,0-3,0h-3c-2.56.08-4.35.96-8,1-.66,0-1.35.05-2,0l.15-1.89,2.73-.2.13-2.91c1-.01,2.01-.04,3,0,.33.01.67-.03,1,0,.28.94,1.15.97,2,1,4.61.18,4.89-1.57,7-2,.2-.04,2.32,2.88,2.01-1h.98c-1.27,2.77,1.94,4.72,2.01,5Z"/>
        <path class="cls-12" d="M214.89,131.57c1.66,0,3.33.05,4.99,0l1.02-7.99,2,4c.95.37,1.89-2.55,1.99-3,.28.97,1.15.93,2,1-.11.62.17,1.5,0,2-1.68,5.06-10.56,5.66-15,5,.03-.33-.02-.67,0-1,1,0,2,0,3,0Z"/>
        <path class="cls-16" d="M238.89,120.57l-1,4c-3.84.07-7.24,1.31-11,1-.85-.07-1.72-.03-2-1,.19-.86-.13-2.05,0-3,5.17,3.1,9.36-1.03,14-1Z"/>
        <path class="cls-12" d="M9.89,126.57c.65.05,1.34,0,2,0l-2,4c-4.67.49-8.24-1.15-9.88-5.68-.19-1.74,1.59-1.88,1.88-2.32-2.92,4.57,5.84,3.84,8,4Z"/>
        <path class="cls-7" d="M15.89,121.57c-.99-.04-2-.01-3,0-1.96.02-10.27-.14-11,1,.45-.69,0-1.87,1.55-2.91,3-2.01,10.34-1.59,12.45,1.91Z"/>
        <path class="cls-17" d="M238.89,120.57c1.42.01,3.3,1.36,5,1v-3s2,0,2,0v3.99c-.2.08-.94,2.34-2.7,2.84-2.73.78-4.28-.86-5.3-.84l1-4Z"/>
        <path class="cls-8" d="M32.89,117.57c.32-.04.67.01,1,0-1.59,2.5.13,5.77-3,7-.07-.28-3.28-2.22-2.01-5h-.98c.31,3.88-1.81.95-2.01,1,1.17-2.54,4.49-2.7,7-3Z"/>
        <path class="cls-7" d="M18.89,122.57c-.85-.03-1.72-.06-2-1,.86.07,1.69.03,2,1Z"/>
        <path class="cls-6" d="M35.89,117.57l-2,14c-1-.04-2.01.06-3,0-.1-.99.11-2.02,0-3-.07-.65.12-1.41,0-2s.14-1.43,0-2c3.13-1.23,1.41-4.5,3-7,.66-.02,1.35-.05,2,0Z"/>
        <path class="cls-8" d="M35.89,117.57c.66.05,1.34-.06,2,0v14.01c-1.32-.02-2.67.04-4,0l2-14Z"/>
        <path class="cls-8" d="M30.89,126.57c.12.59-.07,1.35,0,2l-2.99,2v-2s0-2,0-2c.85.19,2.06-.13,3,0Z"/>
        <path class="cls-12" d="M27.89,126.57v2c-.63-.1-1.47.15-2,0-.18-.86.12-2.05,0-3,.94.06,1.62.92,2,1Z"/>
        <path class="cls-5" d="M215.89,117.57l-1,14c-1,0-2,0-3,0,.33-4.61-.24-9.38,0-14.01h4Z"/>
        <path class="cls-4" d="M12.89,121.57l-.13,2.91-2.73.2-.15,1.89c-2.16-.16-10.92.57-8-4,.73-1.14,9.04-.98,11-1Z"/>
        <path class="cls-12" d="M22.89,125.57c-.65,0-2.39-.02-3,0h3Z"/>
        <path class="cls-15" d="M176.89,126.57c.15.2-.41,1.39.19,1.83l2.67.27.13,2.9v1c-3.89-.61-3.99-2.8-4.7-2.98-4.87-1.26-4.11,2.5-7.3,2.98v-9c4.94,1.64,5.65-1.55,9,3Z"/>
        <path class="cls-5" d="M184.89,117.57c-.44,4.77-.91,9.34-2,14-1,0-2,0-3,0l-.13-2.9-2.67-.27c-.6-.45-.05-1.64-.19-1.83,2.82.72,1.5-1.54,2.3-2.64,1.34-1.84,3.49-2.5,3.7-6.36.62,0,1.56-.13,2,0Z"/>
        <path class="cls-10" d="M184.89,117.57c3.74,1.13,1.36,10.78,2,14.01-1.33.01-2.67,0-4,0,1.09-4.66,1.56-9.23,2-14Z"/>
        <path class="cls-13" d="M78.89,120.57c1.42-.4.36-2.14,6-2l-.18,4.87c-1.85-.66-3.59,2.13-3.82,2.13-.09,0-.78-1.03-1.61-.96-3.4.3-11.75-.88-6.39,4.96-3.81,1.8-1.07,3.1-9,3-2.38-4.86-.6-10.21,0-15,5.94-2.26,10.48,4.29,15,3Z"/>
        <path class="cls-15" d="M80.89,125.57c.13.59-.19,1.62,0,2-1.09,0-2.09.78-3,1-1.5.37-3.58.33-5,1-5.37-5.84,2.99-4.65,6.39-4.96.83-.07,1.52.96,1.61.96Z"/>
        <path class="cls-13" d="M182.89,117.57c-.2,3.86-2.36,4.52-3.7,6.36-.8,1.1.52,3.36-2.3,2.64-3.35-4.54-4.06-1.36-8.99-3v8s-8.01,0-8.01,0c-.46-.46.35-10.74,0-13.01,2.48.11,9.27-.44,11,1,.38.32-.21,3.59,5.46,2.06l.54-3.06c2.03-.2,3.58-.99,6-1Z"/>
        <path class="cls-15" d="M158.89,116.57c3.29.17,6.9-.49,10.1.44,2.49.72,1.74,2.48,1.9,2.56,1.02.56,5.99.51,5.02-1.99,1.13-.19.91,1,.98.99l-.54,3.06c-5.67,1.53-5.08-1.74-5.46-2.06-1.73-1.44-8.52-.89-11-1-.03-.21-.78-1.15-1-2Z"/>
        <path class="cls-9" d="M84.89,118.57c1.99.05,4-.1,5.98.03.26.92-.2,2.19.02,2.97.52,1.89,1.14,2.64,1,5-.04.68-1.85,3.18-1.01,4.99-4.06.71-8.05-.19-9.99-3.99-.19-.38.13-1.41,0-2,.23,0,1.98-2.78,3.82-2.13l.18-4.87ZM86.89,126.57h-1.99v1.99h1.99v-1.99Z"/>
        <rect class="cls-13" x="84.9" y="126.57" width="1.99" height="1.99"/>
      </g>
    </g>
  </g>
</svg>